<svg width="96" height="96" xmlns="http://www.w3.org/2000/svg" xmlns:xlink="http://www.w3.org/1999/xlink" xml:space="preserve" overflow="hidden"><g transform="translate(-301 -610)"><path d="M349 620C328 620 311 637 311 658 311 679 328 696 349 696 370 696 387 679 387 658 387 637 370 620 349 620ZM315 658C315 649.1 318.4 641.1 324 635 324.9 635.5 325.8 636.3 326 637L326 643.3C326 643.7 326.1 644.2 326.4 644.5L333 653 333.5 652.5C333.8 652.2 333.9 651.7 333.7 651.3L332.5 649.3C332 648.5 332.8 647.5 333.7 647.8 334 647.9 334.2 648.1 334.3 648.3L337.6 654.8C338 655.5 338.6 656.1 339.3 656.3L343.7 657.8C344 657.9 344.2 658.1 344.3 658.3L344.6 658.8C344.9 659.5 345.6 659.9 346.4 659.9L347.6 659.9C347.9 659.9 348.2 660.1 348.4 660.3L349.7 662.2C350 662.6 350.4 662.9 350.9 663L353 663.5C353.6 663.6 353.9 664.3 353.7 664.8 353.7 664.8 352.1 666.4 352.1 668.7 352.1 675.3 358.1 677.2 358.1 678.7 358.1 682.8 357.5 688.5 357.2 690.7 354.6 691.3 351.9 691.7 349.1 691.7 330.3 692 315 676.7 315 658ZM361.8 689.5C364 687.6 367.7 684.4 369 683 370.7 681.1 371 678 371 678 371 678 378 676.1 378 671 378 667.5 371 666 371 666 369.8 662.1 363.9 660 359 660 357.9 660 354 662 354 662L352 661 352 658C352 657.4 351.6 657 351 657L349 657 349 654C349 653.4 348.6 653 348 653L347 653 345.9 653.7C344.9 654.4 343.5 654 343 652.9 343 652.9 342 651.5 342 650.9 342 646.6 347 646.9 347 646.9L349.2 646.9C349.7 646.9 350.1 647.2 350.2 647.7L350.8 650.2C350.9 650.6 351.3 651 351.8 651L352.2 651C352.7 651 353.1 650.7 353.2 650.2L353.9 646.5C354 646.2 354.1 645.9 354.3 645.6L357.1 642.1C357.7 641.4 358.5 641 359.4 641L362 641C362.6 641 363 640.6 363 640L363 639 362.7 638.7C362.1 638.1 362.5 637 363.4 637L364 637C364.6 637 365 637.4 365 638 365 638.6 365.4 639 366 639L367 639 367.6 636.4C367.8 635.5 367.4 634.7 366.7 634.2L358.2 629.1C358.1 629 357.9 629 357.7 629L356 629C354.9 629 354 629.9 354 631L354 632C354 632.6 353.6 633 353 633L352 633 351 632 348 632C347.4 632 347 631.6 347 631L347 628.5C347 628.2 347.1 627.9 347.4 627.7L353.8 625 354.8 626.7C355 626.9 355.2 627 355.5 627L358 627C358.6 627 359 626.6 359 626L359 625.5C372.9 629.8 383 642.7 383 658 383 672.2 374.2 684.4 361.8 689.5Z"/><path d="M361.3 653.8 356.5 652.2C356.1 652.1 355.8 652.1 355.4 652.2L352 653C351.7 653.2 351.6 653.6 352 654L356.6 654C356.9 654 357.1 654 357.3 654.1L360.8 655.5C361.4 655.7 362 655.3 362 654.7 362 654.3 361.7 653.9 361.3 653.8Z"/></g></svg>